# xmcd CD database file
#
# Track frame offsets:
#	150
#	31780
#	67760
#	99617
#	112032
#	156330
#	180452
#	207400
#	243647
#
# Disc length: 3793 seconds
#
# Revision: 0
# Processed by: cddbd v1.5.1PL0 Copyright (c) Steve Scherf et al.
# Submitted via: CDex 1.51
#
DISCID=750ecf09
DTITLE=Peggy Larson Band - Rood Haar (Red Hair)
DYEAR=1990
DGENRE=Jazz
TTITLE0=The Universe Is Fine Without Being Mine
TTITLE1=Titles
TTITLE2=Gazpacho
TTITLE3=Citta Fredda
TTITLE4=No No Know No Rest
TTITLE5=I Love Hime
TTITLE6=Rood Haar
TTITLE7=Still
TTITLE8=Dr. Livingstone, I presume
EXTD=YEAR: 1990
EXTT0=
EXTT1=
EXTT2=
EXTT3=
EXTT4=
EXTT5=
EXTT6=
EXTT7=
EXTT8=
PLAYORDER=
